<mxfile host="app.diagrams.net" agent="Mozilla/5.0 (Windows NT 10.0; Win64; x64) AppleWebKit/537.36 (KHTML, like Gecko) Chrome/130.0.0.0 Safari/537.36 Edg/130.0.0.0" version="24.8.4">
  <diagram name="PÃ¡gina-1" id="o9cEKLY3ObnHQTDFIPb3">
    <mxGraphModel dx="1678" dy="2090" grid="1" gridSize="10" guides="1" tooltips="1" connect="1" arrows="1" fold="1" page="1" pageScale="1" pageWidth="827" pageHeight="1169" math="0" shadow="0">
      <root>
        <mxCell id="0" />
        <mxCell id="1" parent="0" />
        <mxCell id="KcnCitbE4qnIxkQRJ8_b-1" value="" style="ellipse;whiteSpace=wrap;html=1;aspect=fixed;movable=0;resizable=0;rotatable=0;deletable=0;editable=0;locked=1;connectable=0;" vertex="1" parent="1">
          <mxGeometry x="70" y="30" width="660" height="660" as="geometry" />
        </mxCell>
        <mxCell id="KcnCitbE4qnIxkQRJ8_b-2" value="" style="ellipse;whiteSpace=wrap;html=1;aspect=fixed;" vertex="1" parent="1">
          <mxGeometry x="330" y="-30" width="130" height="130" as="geometry" />
        </mxCell>
        <mxCell id="KcnCitbE4qnIxkQRJ8_b-7" value="Text" style="text;html=1;align=center;verticalAlign=middle;resizable=0;points=[];autosize=1;strokeColor=none;fillColor=none;" vertex="1" parent="1">
          <mxGeometry x="150" y="15" width="50" height="30" as="geometry" />
        </mxCell>
        <mxCell id="KcnCitbE4qnIxkQRJ8_b-8" value="" style="ellipse;whiteSpace=wrap;html=1;aspect=fixed;" vertex="1" parent="1">
          <mxGeometry x="550" y="560" width="130" height="130" as="geometry" />
        </mxCell>
        <mxCell id="KcnCitbE4qnIxkQRJ8_b-9" value="" style="ellipse;whiteSpace=wrap;html=1;aspect=fixed;" vertex="1" parent="1">
          <mxGeometry x="130" y="560" width="130" height="130" as="geometry" />
        </mxCell>
        <mxCell id="KcnCitbE4qnIxkQRJ8_b-10" value="" style="ellipse;whiteSpace=wrap;html=1;aspect=fixed;" vertex="1" parent="1">
          <mxGeometry x="640" y="210" width="130" height="130" as="geometry" />
        </mxCell>
        <mxCell id="KcnCitbE4qnIxkQRJ8_b-11" value="" style="ellipse;whiteSpace=wrap;html=1;aspect=fixed;" vertex="1" parent="1">
          <mxGeometry x="40" y="210" width="130" height="130" as="geometry" />
        </mxCell>
        <mxCell id="KcnCitbE4qnIxkQRJ8_b-13" value="" style="ellipse;whiteSpace=wrap;html=1;aspect=fixed;" vertex="1" parent="1">
          <mxGeometry x="420" y="220" width="130" height="130" as="geometry" />
        </mxCell>
        <mxCell id="KcnCitbE4qnIxkQRJ8_b-14" value="" style="ellipse;whiteSpace=wrap;html=1;aspect=fixed;" vertex="1" parent="1">
          <mxGeometry x="240" y="220" width="130" height="130" as="geometry" />
        </mxCell>
        <mxCell id="KcnCitbE4qnIxkQRJ8_b-15" value="&lt;font style=&quot;font-size: 18px;&quot;&gt;Portal Clientes&lt;/font&gt;" style="rounded=1;whiteSpace=wrap;html=1;" vertex="1" parent="1">
          <mxGeometry x="270" y="-750" width="170" height="120" as="geometry" />
        </mxCell>
        <mxCell id="KcnCitbE4qnIxkQRJ8_b-16" value="&lt;font style=&quot;font-size: 18px;&quot;&gt;Pagina Web&lt;/font&gt;" style="rounded=1;whiteSpace=wrap;html=1;" vertex="1" parent="1">
          <mxGeometry x="470" y="-750" width="170" height="120" as="geometry" />
        </mxCell>
        <mxCell id="KcnCitbE4qnIxkQRJ8_b-18" value="" style="endArrow=classic;html=1;rounded=0;exitX=0.555;exitY=0;exitDx=0;exitDy=0;exitPerimeter=0;entryX=0.451;entryY=0.01;entryDx=0;entryDy=0;entryPerimeter=0;flowAnimation=1;shadow=1;strokeWidth=5;" edge="1" parent="1" source="KcnCitbE4qnIxkQRJ8_b-16" target="KcnCitbE4qnIxkQRJ8_b-15">
          <mxGeometry width="50" height="50" relative="1" as="geometry">
            <mxPoint x="520" y="-750" as="sourcePoint" />
            <mxPoint x="570" y="-800" as="targetPoint" />
            <Array as="points">
              <mxPoint x="555" y="-790" />
              <mxPoint x="530" y="-820" />
              <mxPoint x="490" y="-840" />
              <mxPoint x="460" y="-840" />
              <mxPoint x="420" y="-840" />
              <mxPoint x="380" y="-810" />
            </Array>
          </mxGeometry>
        </mxCell>
        <mxCell id="KcnCitbE4qnIxkQRJ8_b-20" value="" style="endArrow=classic;html=1;rounded=0;entryX=0.583;entryY=1.02;entryDx=0;entryDy=0;exitX=0.5;exitY=1;exitDx=0;exitDy=0;entryPerimeter=0;flowAnimation=1;strokeWidth=5;" edge="1" parent="1" target="KcnCitbE4qnIxkQRJ8_b-16">
          <mxGeometry width="50" height="50" relative="1" as="geometry">
            <mxPoint x="350" y="-630" as="sourcePoint" />
            <mxPoint x="550" y="-630" as="targetPoint" />
            <Array as="points">
              <mxPoint x="390" y="-560" />
              <mxPoint x="410" y="-550" />
              <mxPoint x="430" y="-540" />
              <mxPoint x="450" y="-530" />
              <mxPoint x="470" y="-530" />
              <mxPoint x="500" y="-540" />
              <mxPoint x="520" y="-550" />
              <mxPoint x="540" y="-570" />
              <mxPoint x="555" y="-600" />
            </Array>
          </mxGeometry>
        </mxCell>
        <mxCell id="KcnCitbE4qnIxkQRJ8_b-22" value="" style="shape=actor;whiteSpace=wrap;html=1;" vertex="1" parent="1">
          <mxGeometry x="680" y="-80" width="120" height="130" as="geometry" />
        </mxCell>
        <mxCell id="KcnCitbE4qnIxkQRJ8_b-23" value="" style="curved=1;endArrow=classic;html=1;rounded=0;exitX=0;exitY=0.75;exitDx=0;exitDy=0;entryX=1;entryY=0.308;entryDx=0;entryDy=0;entryPerimeter=0;endSize=8;flowAnimation=1;strokeWidth=5;" edge="1" parent="1" source="KcnCitbE4qnIxkQRJ8_b-22" target="KcnCitbE4qnIxkQRJ8_b-2">
          <mxGeometry width="50" height="50" relative="1" as="geometry">
            <mxPoint x="670" y="20" as="sourcePoint" />
            <mxPoint x="570" y="20" as="targetPoint" />
            <Array as="points">
              <mxPoint x="570" y="70" />
              <mxPoint x="610" />
              <mxPoint x="520" y="20" />
            </Array>
          </mxGeometry>
        </mxCell>
        <mxCell id="KcnCitbE4qnIxkQRJ8_b-26" value="" style="endArrow=classic;html=1;rounded=0;exitX=0.5;exitY=0;exitDx=0;exitDy=0;entryX=0.5;entryY=1;entryDx=0;entryDy=0;endSize=8;flowAnimation=1;strokeWidth=5;edgeStyle=elbowEdgeStyle;elbow=vertical;" edge="1" parent="1" source="KcnCitbE4qnIxkQRJ8_b-14" target="KcnCitbE4qnIxkQRJ8_b-2">
          <mxGeometry width="50" height="50" relative="1" as="geometry">
            <mxPoint x="390" y="148" as="sourcePoint" />
            <mxPoint x="170" y="140" as="targetPoint" />
          </mxGeometry>
        </mxCell>
      </root>
    </mxGraphModel>
  </diagram>
</mxfile>
